<?xml version="1.0" encoding="UTF-8" standalone="no"?>
<svg
   width="16"
   height="16"
   viewBox="0 0 4.2333333 4.2333335"
   version="1.1"
   id="svg5"
   xmlns="http://www.w3.org/2000/svg"
   xmlns:svg="http://www.w3.org/2000/svg">
  <defs
     id="defs198" />
  <g
     id="g414"
     transform="matrix(0.09143134,0,0,0.09143134,6.5891194e-7,1.10012)">
    <path
       d="m 73.71871,210.17555 q 0.310547,0.22585 0.451705,0.33878 0.169389,0.0847 0.254083,0.14116 0.112927,0.0565 0.197621,0.14115 0.112926,0.0847 0.338779,0.25409 -0.141158,0.31054 -0.141158,0.47993 0,0.16939 0.02823,0.33878 0.02823,0.14116 0.05646,0.31055 0.05646,0.16939 0.02823,0.4517 -1.552735,0.98811 -2.766691,1.58097 -1.185725,0.56463 -2.314986,0.9881 -1.101031,0.42348 -2.314987,0.81872 -1.185725,0.36701 -2.766691,0.9881 0.649325,0.39524 1.665661,0.70579 1.044567,0.28232 2.060903,0.67756 1.044567,0.36701 1.891513,0.93164 0.846946,0.56463 1.129262,1.46804 0.395241,0.0282 0.677557,0.4517 0.310547,0.42348 0.254083,0.98811 -0.282315,0.16939 -0.536399,0.39524 -0.225852,0.19762 -0.592862,0.31055 -0.310547,0.0565 -0.818715,-0.0565 -0.479936,-0.11292 -1.072799,-0.31054 -0.56463,-0.19762 -1.213956,-0.42348 -0.621094,-0.22585 -1.185725,-0.36701 -0.564631,-0.14115 -1.242188,-0.25408 -0.649325,-0.11293 -1.213956,-0.33878 -0.254084,-0.11292 -0.451705,-0.25408 -0.169389,-0.16939 -0.423473,-0.22585 -0.508167,-0.0847 -1.10103,-0.31055 -0.564631,-0.25409 -1.157493,-0.5364 -0.592863,-0.28232 -1.185725,-0.56463 -0.564631,-0.28232 -1.072799,-0.50817 0.02823,-0.16939 -0.36701,-0.42347 -0.395241,-0.25409 -0.846946,-0.28232 0,-0.33878 -0.282315,-0.59286 -0.254084,-0.28232 -0.395242,-0.62109 -0.310547,-0.79049 0.225852,-1.49628 0.5364,-0.70579 1.609198,-0.84694 0.338779,0.11292 0.508168,0.11292 0.197621,-0.0282 0.508168,0.11293 0.508168,-0.33878 1.213956,-0.64933 0.73402,-0.33877 1.411577,-0.19762 0.0847,-0.22585 0.310547,-0.22585 0.254084,0 0.310547,-0.25408 1.157494,-0.19762 2.258524,-0.6211 1.10103,-0.42347 2.145597,-0.90341 1.044567,-0.50816 2.004439,-0.9881 0.988104,-0.50817 1.891514,-0.90341 0.395241,0.11293 0.73402,0 0.338778,-0.14116 0.705788,-0.11293 -0.08469,0.0847 -0.02823,0.11293 0.05646,0.0282 0.169389,0.0565 0.112926,0 0.225853,0.0282 0.141157,0 0.225852,0.0847 z"
       style="font-size:28.9091px;line-height:1.25;font-family:'Permanent Marker';-inkscape-font-specification:'Permanent Marker';fill:#dbbd30;stroke-width:0.150548"
       id="path401"
       transform="translate(-57.174085,-202.41188)" />
    <path
       d="m 83.430361,207.83233 q 0.508168,-0.36701 1.10103,-1.18572 0.592863,-0.84695 1.242188,-1.66566 0.677557,-0.81872 1.355114,-1.41158 0.705789,-0.6211 1.411577,-0.5364 0.451705,1.01633 0.479936,2.03267 0.02823,0.9881 -0.19762,2.25852 -0.254084,0.31055 -0.73402,0.84695 -0.479937,0.5364 -1.072799,1.21396 -0.564631,0.64932 -1.185725,1.35511 -0.621094,0.70579 -1.185725,1.35511 -0.536399,0.64933 -0.959872,1.18573 -0.395242,0.5364 -0.536399,0.84695 -0.395242,0.42347 -1.072799,1.18572 -0.649326,0.76225 -1.355114,1.6092 -0.705789,0.84694 -1.383346,1.66566 -0.649325,0.79048 -1.072798,1.32688 -0.02823,0.14116 0.08469,0.25409 0.112927,0.11292 0.16939,0.25408 -0.310547,0.28232 -0.36701,0.5364 -0.05646,0.22585 -0.02823,0.47994 0.02823,0.25408 0.08469,0.50816 0.05646,0.22586 0.02823,0.50817 -0.197621,0.16939 -0.338778,0.39524 -0.112927,0.22585 -0.254084,0.45171 -0.112926,0.19762 -0.310547,0.39524 -0.169389,0.19762 -0.451705,0.33878 -0.592862,-0.0565 -0.959872,-0.16939 -0.36701,-0.0847 -0.875178,-0.16939 -0.479936,-0.39524 -0.649326,-0.95987 -0.169389,-0.59287 -0.141157,-1.18573 0,-0.62109 0.141157,-1.21395 0.112927,-0.6211 0.254084,-1.0728 0.310547,-0.19762 0.02823,-0.28232 0.112926,-0.39524 0.395241,-0.64932 0.282316,-0.28232 0.282316,-0.47994 0.197621,-0.31055 0.762251,-0.93164 0.564631,-0.64933 1.213957,-1.38335 0.677557,-0.73402 1.298651,-1.41157 0.621094,-0.70579 0.959872,-1.10103 0.169389,-0.45171 0.762252,-1.1575 0.621094,-0.73402 1.270419,-1.49627 0.677557,-0.76225 1.213957,-1.43981 0.56463,-0.67756 0.592862,-1.10103 z"
       style="font-size:28.9091px;line-height:1.25;font-family:'Permanent Marker';-inkscape-font-specification:'Permanent Marker';fill:#dbbd30;stroke-width:0.150548"
       id="path403"
       transform="translate(-57.174085,-202.41188)" />
    <path
       d="m 102.68427,214.74906 q 0,0.33878 0.25409,0.62109 0.28231,0.25409 0.42347,0.59287 0.16939,0.39524 0.0847,0.79048 -0.0565,0.39524 -0.31055,0.70579 -0.25409,0.31054 -0.67756,0.5364 -0.39524,0.22585 -0.93164,0.31054 -0.33878,-0.14115 -0.5364,-0.11292 -0.16939,0.0282 -0.47994,-0.11293 -0.50816,0.33878 -1.242183,0.67756 -0.705789,0.31055 -1.383346,0.16939 -0.08469,0.22585 -0.338778,0.22585 -0.225852,0 -0.282315,0.25408 -1.157494,0.19762 -2.258524,0.6211 -1.10103,0.42347 -2.145597,0.93164 -1.044567,0.47994 -2.032671,0.9881 -0.959873,0.50817 -1.863282,0.87518 -0.395242,-0.11293 -0.73402,0.0282 -0.338779,0.11293 -0.705789,0.0847 0.0847,-0.0847 0.02823,-0.11293 -0.05646,-0.0282 -0.169389,-0.0282 -0.112927,-0.0282 -0.254084,-0.0282 -0.112926,-0.0282 -0.197621,-0.11293 -0.310547,-0.19762 -0.451705,-0.31055 -0.169389,-0.11292 -0.254084,-0.16938 -0.112926,-0.0565 -0.225852,-0.14116 -0.112926,-0.0847 -0.310547,-0.25409 0.112926,-0.28231 0.141158,-0.4517 0,-0.19762 -0.02823,-0.33878 -0.02823,-0.16939 -0.05646,-0.33878 -0.05646,-0.16939 -0.02823,-0.4517 1.552734,-0.98811 2.738459,-1.55274 1.185725,-0.59286 2.314987,-1.01633 1.129261,-0.42348 2.314986,-0.79049 1.213957,-0.39524 2.794923,-1.01633 -0.649326,-0.36701 -1.693893,-0.67756 -1.016335,-0.31055 -2.060902,-0.67756 -1.016336,-0.39524 -1.863282,-0.95987 -0.846946,-0.56463 -1.129262,-1.46804 -0.395241,-0.0282 -0.705788,-0.4517 -0.282316,-0.42348 -0.225853,-0.98811 0.282316,-0.16939 0.508168,-0.36701 0.254084,-0.22585 0.621094,-0.33878 0.310547,-0.0565 0.790483,0.0565 0.508168,0.11292 1.072799,0.31054 0.592862,0.19763 1.213956,0.42348 0.649326,0.22585 1.213957,0.36701 0.56463,0.14116 1.213956,0.25408 0.677557,0.11293 1.242188,0.33878 0.254084,0.11293 0.423473,0.28232 0.197621,0.14115 0.451705,0.19762 0.508167,0.0847 1.072798,0.33877 0.592863,0.22586 1.185725,0.50817 0.592862,0.28232 1.157492,0.59286 0.59286,0.28232 1.10103,0.47994 -0.0282,0.16939 0.36701,0.42347 0.39524,0.25409 0.84694,0.28232 z"
       style="font-size:28.9091px;line-height:1.25;font-family:'Permanent Marker';-inkscape-font-specification:'Permanent Marker';fill:#dbbd30;stroke-width:0.150548"
       id="path405"
       transform="translate(-57.174085,-202.41188)" />
  </g>
</svg>
